<?xml version="1.0" encoding="UTF-8"?>
<svg xmlns="http://www.w3.org/2000/svg" onmouseup="{ if(window.parent.document.onmouseup) window.parent.document.onmouseup(arguments[0]);}" fill="none" viewBox="0 0 20 20" height="20" width="20"><path data-cppathid="10000" fill="white" d="M19.7 8.29995L10.7 0.299951C10.3 -4.88311e-05 9.79999 -4.88311e-05 9.39999 0.299951L0.399989 8.29995C-1.10269e-05 8.69995 -0.100011 9.29995 0.299989 9.69995C0.699989 10.1 1.29999 10.2 1.69999 9.79995L1.99999 9.39995V19C1.99999 19.6 2.39999 20 2.99999 20H17C17.6 20 18 19.6 18 19V9.39995L18.3 9.69995C18.7 10.1 19.3 9.99995 19.7 9.59995C20.1 9.29995 20.1 8.59995 19.7 8.29995ZM9.99999 8.99995C11.5 8.99995 12.7 10.2 12.7 11.7C12.7 13.2 11.5 14.4 9.99999 14.4C8.49999 14.4 7.29999 13.2 7.29999 11.7C7.29999 10.2 8.49999 8.99995 9.99999 8.99995ZM4.99999 18C4.99999 17.9 4.99999 17.8999 5.09999 17.7999C7.29999 15.0999 11.3 14.5999 14 16.7999C14.4 17.0999 14.7 17.3999 15 17.7999C15 17.7999 15 17.9 15.1 18H4.99999Z"/></svg>