<?xml version="1.0" encoding="UTF-8"?>
<svg xmlns="http://www.w3.org/2000/svg" onmouseup="{ if(window.parent.document.onmouseup) window.parent.document.onmouseup(arguments[0]);}" fill="none" viewBox="0 0 22 22" height="22" width="22"><path data-cppathid="10000" fill="white" d="M21.2647 1.42778C20.9799 1.19091 20.6363 1.03567 20.2704 0.978584C19.9044 0.921494 19.5299 0.964688 19.1865 1.10357L1.26563 8.33892C0.882379 8.4966 0.556146 8.76711 0.330229 9.11454C0.104313 9.46196 -0.0106031 9.86988 0.000734448 10.2841C0.012072 10.6984 0.149127 11.0994 0.393707 11.434C0.638288 11.7685 0.978829 12.0208 1.37013 12.1573L4.99513 13.418L7.01563 20.0997C7.04309 20.1889 7.08293 20.2739 7.13401 20.352C7.14176 20.364 7.15269 20.373 7.16093 20.3846C7.21993 20.467 7.29124 20.5397 7.37236 20.6004C7.39543 20.618 7.41752 20.6345 7.44218 20.6501C7.53711 20.7131 7.64225 20.7591 7.75291 20.7862L7.76475 20.7872L7.77146 20.7901C7.83799 20.8036 7.90571 20.8105 7.97361 20.8106C7.98014 20.8106 7.98594 20.8074 7.99241 20.8073C8.09487 20.8055 8.19644 20.7879 8.2935 20.755C8.31608 20.7473 8.33543 20.7345 8.35734 20.7252C8.42972 20.6952 8.49829 20.6567 8.56163 20.6106C8.61235 20.5679 8.66309 20.5251 8.71385 20.4824L11.416 17.4991L15.4463 20.6211C15.8011 20.8974 16.2378 21.0475 16.6875 21.0479C17.1587 21.0473 17.6153 20.8847 17.9809 20.5874C18.3464 20.2901 18.5987 19.8762 18.6953 19.4151L21.958 3.39849C22.0319 3.03801 22.0065 2.66421 21.8844 2.31708C21.7622 1.96995 21.548 1.66255 21.2647 1.42778V1.42778ZM8.37013 13.7364C8.23147 13.8745 8.13669 14.0505 8.09767 14.2422L7.78816 15.7462L7.0041 13.1532L11.0693 11.0362L8.37013 13.7364ZM16.6719 19.0401L11.9092 15.3506C11.7099 15.1966 11.46 15.1234 11.2091 15.1455C10.9583 15.1675 10.725 15.2833 10.5557 15.4697L9.69026 16.4249L9.9961 14.9385L17.0791 7.85549C17.2482 7.68665 17.3512 7.46285 17.3695 7.22461C17.3878 6.98638 17.3201 6.74947 17.1788 6.55681C17.0375 6.36414 16.8318 6.22845 16.5991 6.17433C16.3664 6.1202 16.122 6.15121 15.9102 6.26174L5.74488 11.5544L2.02052 10.1915L19.999 2.99905L16.6719 19.0401Z"/></svg>